<?xml version="1.0" encoding="UTF-8"?>
                <svg xmlns="http://www.w3.org/2000/svg"
                version="1.1" baseProfile="full"
                viewBox="-1529.4395 -3161.986 3058.879 3449.4395">
<g stroke="black" stroke-width="3.4494395" fill="none">
<path d="M0 -0 L0 -25 L0 -50 L0 -75 L0 -100 L0 -125 L0 -150 L0 -175 L0 -200 L0 -225 L0 -250 L0 -275 L0 -300 L0 -325 L0 -350 L0 -375 L0 -400 L0 -425 L0 -450 L0 -475 L0 -500 L0 -525 L0 -550 L0 -575 L0 -600 L0 -625 L0 -650 L0 -675 L0 -700 L0 -725 L0 -750 L0 -775 L0 -800 L0 -825 L0 -850 L0 -875 L0 -900 L0 -925 L0 -950 L0 -975 L0 -1000 L0 -1025 L0 -1050 L0 -1075 L0 -1100 L0 -1125 L0 -1150 L0 -1175 L0 -1200 L0 -1225 L0 -1250 L0 -1275 L0 -1300 L0 -1325 L0 -1350 L0 -1375 L0 -1400 L0 -1425 L0 -1450 L0 -1475 L0 -1500 L0 -1525 L0 -1550 L0 -1575 L0 -1600 L-17.677671 -1617.6776 L-35.355343 -1635.3552 L-53.033012 -1653.0328 L-70.710686 -1670.7104 L-88.38836 -1688.3881 L-106.06603 -1706.0657 L-123.743706 -1723.7433 L-141.42137 -1741.4209 L-159.09904 -1759.0985 L-176.77672 -1776.7761 L-194.45439 -1794.4537 L-212.13206 -1812.1313 L-229.80974 -1829.809 L-247.48741 -1847.4866 L-265.16507 -1865.1642 L-282.84274 -1882.8418 L-300.52042 -1900.5194 L-318.1981 -1918.197 L-335.87576 -1935.8746 L-353.55344 -1953.5522 L-371.2311 -1971.2299 L-388.90878 -1988.9075 L-406.58646 -2006.5851 L-424.26413 -2024.2627 L-441.9418 -2041.9403 L-459.61948 -2059.618 L-477.29715 -2077.2957 L-494.97482 -2094.9734 L-512.65247 -2112.6511 L-530.33014 -2130.3289 L-548.0078 -2148.0066 L-565.6855 -2165.6843 L-590.6855 -2165.6843 L-615.6855 -2165.6843 L-640.6855 -2165.6843 L-665.6855 -2165.6843 L-690.6855 -2165.6843 L-715.6855 -2165.6843 L-740.6855 -2165.6843 L-765.6855 -2165.6843 L-790.6855 -2165.6843 L-815.6855 -2165.6843 L-840.6855 -2165.6843 L-865.6855 -2165.6843 L-890.6855 -2165.6843 L-915.6855 -2165.6843 L-940.6855 -2165.6843 L-965.6855 -2165.6843 L-983.36316 -2148.0066 L-1001.04083 -2130.3289 L-1018.7185 -2112.6511 L-1036.3961 -2094.9734 L-1054.0737 -2077.2957 L-1071.7513 -2059.618 L-1089.429 -2041.9403 L-1107.1066 -2024.2627 L-1107.1066 -1999.2627 L-1107.1066 -1974.2627 L-1107.1066 -1949.2627 L-1107.1066 -1924.2627 L-1089.429 -1906.5851 L-1071.7513 -1888.9075 L-1046.7513 -1888.9075 L-1039.6803 -1895.9785" />
<path d="M-1046.7513 -1888.9075 L-1039.6803 -1881.8364" />
<path d="M-1071.7513 -1888.9075 L-1071.7513 -1863.9075 L-1064.6803 -1856.8364" />
<path d="M-1071.7513 -1863.9075 L-1078.8224 -1856.8364" />
<path d="M-1107.1066 -1924.2627 L-1124.7842 -1906.5851 L-1142.4618 -1888.9075 L-1142.4618 -1863.9075 L-1135.3907 -1856.8364" />
<path d="M-1142.4618 -1863.9075 L-1149.5328 -1856.8364" />
<path d="M-1142.4618 -1888.9075 L-1167.4618 -1888.9075 L-1174.5328 -1881.8364" />
<path d="M-1167.4618 -1888.9075 L-1174.5328 -1895.9785" />
<path d="M-1107.1066 -2024.2627 L-1132.1066 -2024.2627 L-1157.1066 -2024.2627 L-1182.1066 -2024.2627 L-1207.1066 -2024.2627 L-1224.7842 -2006.5851 L-1242.4618 -1988.9075 L-1242.4618 -1963.9075 L-1235.3907 -1956.8364" />
<path d="M-1242.4618 -1963.9075 L-1249.5328 -1956.8364" />
<path d="M-1242.4618 -1988.9075 L-1267.4618 -1988.9075 L-1274.5328 -1981.8364" />
<path d="M-1267.4618 -1988.9075 L-1274.5328 -1995.9785" />
<path d="M-1207.1066 -2024.2627 L-1224.7842 -2041.9403 L-1242.4618 -2059.618 L-1267.4618 -2059.618 L-1274.5328 -2052.5469" />
<path d="M-1267.4618 -2059.618 L-1274.5328 -2066.689" />
<path d="M-1242.4618 -2059.618 L-1242.4618 -2084.618 L-1249.5328 -2091.689" />
<path d="M-1242.4618 -2084.618 L-1235.3907 -2091.689" />
<path d="M-965.6855 -2165.6843 L-983.36316 -2183.362 L-1001.04083 -2201.0398 L-1018.7185 -2218.7175 L-1036.3961 -2236.3953 L-1054.0737 -2254.073 L-1071.7513 -2271.7507 L-1089.429 -2289.4285 L-1107.1066 -2307.1062 L-1132.1066 -2307.1062 L-1157.1066 -2307.1062 L-1182.1066 -2307.1062 L-1207.1066 -2307.1062 L-1224.7842 -2289.4285 L-1242.4618 -2271.7507 L-1242.4618 -2246.7507 L-1235.3907 -2239.6797" />
<path d="M-1242.4618 -2246.7507 L-1249.5328 -2239.6797" />
<path d="M-1242.4618 -2271.7507 L-1267.4618 -2271.7507 L-1274.5328 -2264.6797" />
<path d="M-1267.4618 -2271.7507 L-1274.5328 -2278.8218" />
<path d="M-1207.1066 -2307.1062 L-1224.7842 -2324.784 L-1242.4618 -2342.4617 L-1267.4618 -2342.4617 L-1274.5328 -2335.3906" />
<path d="M-1267.4618 -2342.4617 L-1274.5328 -2349.5327" />
<path d="M-1242.4618 -2342.4617 L-1242.4618 -2367.4617 L-1249.5328 -2374.5327" />
<path d="M-1242.4618 -2367.4617 L-1235.3907 -2374.5327" />
<path d="M-1107.1066 -2307.1062 L-1107.1066 -2332.1062 L-1107.1066 -2357.1062 L-1107.1066 -2382.1062 L-1107.1066 -2407.1062 L-1124.7842 -2424.784 L-1142.4618 -2442.4617 L-1167.4618 -2442.4617 L-1174.5328 -2435.3906" />
<path d="M-1167.4618 -2442.4617 L-1174.5328 -2449.5327" />
<path d="M-1142.4618 -2442.4617 L-1142.4618 -2467.4617 L-1149.5328 -2474.5327" />
<path d="M-1142.4618 -2467.4617 L-1135.3907 -2474.5327" />
<path d="M-1107.1066 -2407.1062 L-1089.429 -2424.784 L-1071.7513 -2442.4617 L-1071.7513 -2467.4617 L-1078.8224 -2474.5327" />
<path d="M-1071.7513 -2467.4617 L-1064.6803 -2474.5327" />
<path d="M-1071.7513 -2442.4617 L-1046.7513 -2442.4617 L-1039.6803 -2449.5327" />
<path d="M-1046.7513 -2442.4617 L-1039.6803 -2435.3906" />
<path d="M-565.6855 -2165.6843 L-565.6855 -2190.6843 L-565.6855 -2215.6843 L-565.6855 -2240.6843 L-565.6855 -2265.6843 L-565.6855 -2290.6843 L-565.6855 -2315.6843 L-565.6855 -2340.6843 L-565.6855 -2365.6843 L-565.6855 -2390.6843 L-565.6855 -2415.6843 L-565.6855 -2440.6843 L-565.6855 -2465.6843 L-565.6855 -2490.6843 L-565.6855 -2515.6843 L-565.6855 -2540.6843 L-565.6855 -2565.6843 L-583.36316 -2583.362 L-601.04083 -2601.0398 L-618.7185 -2618.7175 L-636.3962 -2636.3953 L-654.07385 -2654.073 L-671.7515 -2671.7507 L-689.4292 -2689.4285 L-707.1069 -2707.1062 L-732.1069 -2707.1062 L-757.1069 -2707.1062 L-782.1069 -2707.1062 L-807.1069 -2707.1062 L-824.78455 -2689.4285 L-842.4622 -2671.7507 L-842.4622 -2646.7507 L-835.3912 -2639.6797" />
<path d="M-842.4622 -2646.7507 L-849.53326 -2639.6797" />
<path d="M-842.4622 -2671.7507 L-867.4622 -2671.7507 L-874.53326 -2664.6797" />
<path d="M-867.4622 -2671.7507 L-874.53326 -2678.8218" />
<path d="M-807.1069 -2707.1062 L-824.78455 -2724.784 L-842.4622 -2742.4617 L-867.4622 -2742.4617 L-874.53326 -2735.3906" />
<path d="M-867.4622 -2742.4617 L-874.53326 -2749.5327" />
<path d="M-842.4622 -2742.4617 L-842.4622 -2767.4617 L-849.53326 -2774.5327" />
<path d="M-842.4622 -2767.4617 L-835.3912 -2774.5327" />
<path d="M-707.1069 -2707.1062 L-707.1069 -2732.1062 L-707.1069 -2757.1062 L-707.1069 -2782.1062 L-707.1069 -2807.1062 L-724.78455 -2824.784 L-742.4622 -2842.4617 L-767.4622 -2842.4617 L-774.53326 -2835.3906" />
<path d="M-767.4622 -2842.4617 L-774.53326 -2849.5327" />
<path d="M-742.4622 -2842.4617 L-742.4622 -2867.4617 L-749.53326 -2874.5327" />
<path d="M-742.4622 -2867.4617 L-735.3912 -2874.5327" />
<path d="M-707.1069 -2807.1062 L-689.4292 -2824.784 L-671.7515 -2842.4617 L-671.7515 -2867.4617 L-678.8226 -2874.5327" />
<path d="M-671.7515 -2867.4617 L-664.6805 -2874.5327" />
<path d="M-671.7515 -2842.4617 L-646.7515 -2842.4617 L-639.6805 -2849.5327" />
<path d="M-646.7515 -2842.4617 L-639.6805 -2835.3906" />
<path d="M-565.6855 -2565.6843 L-548.0078 -2583.362 L-530.33014 -2601.0398 L-512.65247 -2618.7175 L-494.9748 -2636.3953 L-477.29712 -2654.073 L-459.61945 -2671.7507 L-441.94177 -2689.4285 L-424.2641 -2707.1062 L-424.2641 -2732.1062 L-424.2641 -2757.1062 L-424.2641 -2782.1062 L-424.2641 -2807.1062 L-441.94177 -2824.784 L-459.61945 -2842.4617 L-484.61945 -2842.4617 L-491.69052 -2835.3906" />
<path d="M-484.61945 -2842.4617 L-491.69052 -2849.5327" />
<path d="M-459.61945 -2842.4617 L-459.61945 -2867.4617 L-466.69052 -2874.5327" />
<path d="M-459.61945 -2867.4617 L-452.54837 -2874.5327" />
<path d="M-424.2641 -2807.1062 L-406.58643 -2824.784 L-388.90875 -2842.4617 L-388.90875 -2867.4617 L-395.97983 -2874.5327" />
<path d="M-388.90875 -2867.4617 L-381.83768 -2874.5327" />
<path d="M-388.90875 -2842.4617 L-363.90875 -2842.4617 L-356.83768 -2849.5327" />
<path d="M-363.90875 -2842.4617 L-356.83768 -2835.3906" />
<path d="M-424.2641 -2707.1062 L-399.2641 -2707.1062 L-374.2641 -2707.1062 L-349.2641 -2707.1062 L-324.2641 -2707.1062 L-306.58643 -2724.784 L-288.90875 -2742.4617 L-288.90875 -2767.4617 L-295.97983 -2774.5327" />
<path d="M-288.90875 -2767.4617 L-281.83768 -2774.5327" />
<path d="M-288.90875 -2742.4617 L-263.90875 -2742.4617 L-256.83768 -2749.5327" />
<path d="M-263.90875 -2742.4617 L-256.83768 -2735.3906" />
<path d="M-324.2641 -2707.1062 L-306.58643 -2689.4285 L-288.90875 -2671.7507 L-263.90875 -2671.7507 L-256.83768 -2678.8218" />
<path d="M-263.90875 -2671.7507 L-256.83768 -2664.6797" />
<path d="M-288.90875 -2671.7507 L-288.90875 -2646.7507 L-281.83768 -2639.6797" />
<path d="M-288.90875 -2646.7507 L-295.97983 -2639.6797" />
<path d="M0 -1600 L17.677671 -1617.6776 L35.355343 -1635.3552 L53.033012 -1653.0328 L70.710686 -1670.7104 L88.38836 -1688.3881 L106.06603 -1706.0657 L123.743706 -1723.7433 L141.42137 -1741.4209 L159.09904 -1759.0985 L176.77672 -1776.7761 L194.45439 -1794.4537 L212.13206 -1812.1313 L229.80974 -1829.809 L247.48741 -1847.4866 L265.16507 -1865.1642 L282.84274 -1882.8418 L300.52042 -1900.5194 L318.1981 -1918.197 L335.87576 -1935.8746 L353.55344 -1953.5522 L371.2311 -1971.2299 L388.90878 -1988.9075 L406.58646 -2006.5851 L424.26413 -2024.2627 L441.9418 -2041.9403 L459.61948 -2059.618 L477.29715 -2077.2957 L494.97482 -2094.9734 L512.65247 -2112.6511 L530.33014 -2130.3289 L548.0078 -2148.0066 L565.6855 -2165.6843 L565.6855 -2190.6843 L565.6855 -2215.6843 L565.6855 -2240.6843 L565.6855 -2265.6843 L565.6855 -2290.6843 L565.6855 -2315.6843 L565.6855 -2340.6843 L565.6855 -2365.6843 L565.6855 -2390.6843 L565.6855 -2415.6843 L565.6855 -2440.6843 L565.6855 -2465.6843 L565.6855 -2490.6843 L565.6855 -2515.6843 L565.6855 -2540.6843 L565.6855 -2565.6843 L548.0078 -2583.362 L530.33014 -2601.0398 L512.65247 -2618.7175 L494.9748 -2636.3953 L477.29712 -2654.073 L459.61945 -2671.7507 L441.94177 -2689.4285 L424.2641 -2707.1062 L399.2641 -2707.1062 L374.2641 -2707.1062 L349.2641 -2707.1062 L324.2641 -2707.1062 L306.58643 -2689.4285 L288.90875 -2671.7507 L288.90875 -2646.7507 L295.97983 -2639.6797" />
<path d="M288.90875 -2646.7507 L281.83768 -2639.6797" />
<path d="M288.90875 -2671.7507 L263.90875 -2671.7507 L256.83768 -2664.6797" />
<path d="M263.90875 -2671.7507 L256.83768 -2678.8218" />
<path d="M324.2641 -2707.1062 L306.58643 -2724.784 L288.90875 -2742.4617 L263.90875 -2742.4617 L256.83768 -2735.3906" />
<path d="M263.90875 -2742.4617 L256.83768 -2749.5327" />
<path d="M288.90875 -2742.4617 L288.90875 -2767.4617 L281.83768 -2774.5327" />
<path d="M288.90875 -2767.4617 L295.97983 -2774.5327" />
<path d="M424.2641 -2707.1062 L424.2641 -2732.1062 L424.2641 -2757.1062 L424.2641 -2782.1062 L424.2641 -2807.1062 L406.58643 -2824.784 L388.90875 -2842.4617 L363.90875 -2842.4617 L356.83768 -2835.3906" />
<path d="M363.90875 -2842.4617 L356.83768 -2849.5327" />
<path d="M388.90875 -2842.4617 L388.90875 -2867.4617 L381.83768 -2874.5327" />
<path d="M388.90875 -2867.4617 L395.97983 -2874.5327" />
<path d="M424.2641 -2807.1062 L441.94177 -2824.784 L459.61945 -2842.4617 L459.61945 -2867.4617 L452.54837 -2874.5327" />
<path d="M459.61945 -2867.4617 L466.69052 -2874.5327" />
<path d="M459.61945 -2842.4617 L484.61945 -2842.4617 L491.69052 -2849.5327" />
<path d="M484.61945 -2842.4617 L491.69052 -2835.3906" />
<path d="M565.6855 -2565.6843 L583.36316 -2583.362 L601.04083 -2601.0398 L618.7185 -2618.7175 L636.3962 -2636.3953 L654.07385 -2654.073 L671.7515 -2671.7507 L689.4292 -2689.4285 L707.1069 -2707.1062 L707.1069 -2732.1062 L707.1069 -2757.1062 L707.1069 -2782.1062 L707.1069 -2807.1062 L689.4292 -2824.784 L671.7515 -2842.4617 L646.7515 -2842.4617 L639.6805 -2835.3906" />
<path d="M646.7515 -2842.4617 L639.6805 -2849.5327" />
<path d="M671.7515 -2842.4617 L671.7515 -2867.4617 L664.6805 -2874.5327" />
<path d="M671.7515 -2867.4617 L678.8226 -2874.5327" />
<path d="M707.1069 -2807.1062 L724.78455 -2824.784 L742.4622 -2842.4617 L742.4622 -2867.4617 L735.3912 -2874.5327" />
<path d="M742.4622 -2867.4617 L749.53326 -2874.5327" />
<path d="M742.4622 -2842.4617 L767.4622 -2842.4617 L774.53326 -2849.5327" />
<path d="M767.4622 -2842.4617 L774.53326 -2835.3906" />
<path d="M707.1069 -2707.1062 L732.1069 -2707.1062 L757.1069 -2707.1062 L782.1069 -2707.1062 L807.1069 -2707.1062 L824.78455 -2724.784 L842.4622 -2742.4617 L842.4622 -2767.4617 L835.3912 -2774.5327" />
<path d="M842.4622 -2767.4617 L849.53326 -2774.5327" />
<path d="M842.4622 -2742.4617 L867.4622 -2742.4617 L874.53326 -2749.5327" />
<path d="M867.4622 -2742.4617 L874.53326 -2735.3906" />
<path d="M807.1069 -2707.1062 L824.78455 -2689.4285 L842.4622 -2671.7507 L867.4622 -2671.7507 L874.53326 -2678.8218" />
<path d="M867.4622 -2671.7507 L874.53326 -2664.6797" />
<path d="M842.4622 -2671.7507 L842.4622 -2646.7507 L849.53326 -2639.6797" />
<path d="M842.4622 -2646.7507 L835.3912 -2639.6797" />
<path d="M565.6855 -2165.6843 L590.6855 -2165.6843 L615.6855 -2165.6843 L640.6855 -2165.6843 L665.6855 -2165.6843 L690.6855 -2165.6843 L715.6855 -2165.6843 L740.6855 -2165.6843 L765.6855 -2165.6843 L790.6855 -2165.6843 L815.6855 -2165.6843 L840.6855 -2165.6843 L865.6855 -2165.6843 L890.6855 -2165.6843 L915.6855 -2165.6843 L940.6855 -2165.6843 L965.6855 -2165.6843 L983.36316 -2183.362 L1001.04083 -2201.0398 L1018.7185 -2218.7175 L1036.3961 -2236.3953 L1054.0737 -2254.073 L1071.7513 -2271.7507 L1089.429 -2289.4285 L1107.1066 -2307.1062 L1107.1066 -2332.1062 L1107.1066 -2357.1062 L1107.1066 -2382.1062 L1107.1066 -2407.1062 L1089.429 -2424.784 L1071.7513 -2442.4617 L1046.7513 -2442.4617 L1039.6803 -2435.3906" />
<path d="M1046.7513 -2442.4617 L1039.6803 -2449.5327" />
<path d="M1071.7513 -2442.4617 L1071.7513 -2467.4617 L1064.6803 -2474.5327" />
<path d="M1071.7513 -2467.4617 L1078.8224 -2474.5327" />
<path d="M1107.1066 -2407.1062 L1124.7842 -2424.784 L1142.4618 -2442.4617 L1142.4618 -2467.4617 L1135.3907 -2474.5327" />
<path d="M1142.4618 -2467.4617 L1149.5328 -2474.5327" />
<path d="M1142.4618 -2442.4617 L1167.4618 -2442.4617 L1174.5328 -2449.5327" />
<path d="M1167.4618 -2442.4617 L1174.5328 -2435.3906" />
<path d="M1107.1066 -2307.1062 L1132.1066 -2307.1062 L1157.1066 -2307.1062 L1182.1066 -2307.1062 L1207.1066 -2307.1062 L1224.7842 -2324.784 L1242.4618 -2342.4617 L1242.4618 -2367.4617 L1235.3907 -2374.5327" />
<path d="M1242.4618 -2367.4617 L1249.5328 -2374.5327" />
<path d="M1242.4618 -2342.4617 L1267.4618 -2342.4617 L1274.5328 -2349.5327" />
<path d="M1267.4618 -2342.4617 L1274.5328 -2335.3906" />
<path d="M1207.1066 -2307.1062 L1224.7842 -2289.4285 L1242.4618 -2271.7507 L1267.4618 -2271.7507 L1274.5328 -2278.8218" />
<path d="M1267.4618 -2271.7507 L1274.5328 -2264.6797" />
<path d="M1242.4618 -2271.7507 L1242.4618 -2246.7507 L1249.5328 -2239.6797" />
<path d="M1242.4618 -2246.7507 L1235.3907 -2239.6797" />
<path d="M965.6855 -2165.6843 L983.36316 -2148.0066 L1001.04083 -2130.3289 L1018.7185 -2112.6511 L1036.3961 -2094.9734 L1054.0737 -2077.2957 L1071.7513 -2059.618 L1089.429 -2041.9403 L1107.1066 -2024.2627 L1132.1066 -2024.2627 L1157.1066 -2024.2627 L1182.1066 -2024.2627 L1207.1066 -2024.2627 L1224.7842 -2041.9403 L1242.4618 -2059.618 L1242.4618 -2084.618 L1235.3907 -2091.689" />
<path d="M1242.4618 -2084.618 L1249.5328 -2091.689" />
<path d="M1242.4618 -2059.618 L1267.4618 -2059.618 L1274.5328 -2066.689" />
<path d="M1267.4618 -2059.618 L1274.5328 -2052.5469" />
<path d="M1207.1066 -2024.2627 L1224.7842 -2006.5851 L1242.4618 -1988.9075 L1267.4618 -1988.9075 L1274.5328 -1995.9785" />
<path d="M1267.4618 -1988.9075 L1274.5328 -1981.8364" />
<path d="M1242.4618 -1988.9075 L1242.4618 -1963.9075 L1249.5328 -1956.8364" />
<path d="M1242.4618 -1963.9075 L1235.3907 -1956.8364" />
<path d="M1107.1066 -2024.2627 L1107.1066 -1999.2627 L1107.1066 -1974.2627 L1107.1066 -1949.2627 L1107.1066 -1924.2627 L1124.7842 -1906.5851 L1142.4618 -1888.9075 L1167.4618 -1888.9075 L1174.5328 -1895.9785" />
<path d="M1167.4618 -1888.9075 L1174.5328 -1881.8364" />
<path d="M1142.4618 -1888.9075 L1142.4618 -1863.9075 L1149.5328 -1856.8364" />
<path d="M1142.4618 -1863.9075 L1135.3907 -1856.8364" />
<path d="M1107.1066 -1924.2627 L1089.429 -1906.5851 L1071.7513 -1888.9075 L1071.7513 -1863.9075 L1078.8224 -1856.8364" />
<path d="M1071.7513 -1863.9075 L1064.6803 -1856.8364" />
<path d="M1071.7513 -1888.9075 L1046.7513 -1888.9075 L1039.6803 -1881.8364" />
<path d="M1046.7513 -1888.9075 L1039.6803 -1895.9785" />
</g>
</svg>
