<?xml version="1.0" encoding="UTF-8"?>
                <svg xmlns="http://www.w3.org/2000/svg"
                version="1.1" baseProfile="full"
                viewBox="-147 -241.00005 564.0001 372.0003">
<g stroke="black" stroke-width="0.5640001" fill="none">
<path d="M0 -0 L0 -10 L10 -10 L9.999999 -0 L20 0.0000004371139 L20 10 L10 10 L9.999999 20 L20 20 L20 30 L10 30 L10.000002 20 L0.0000019073486 20 L0.0000010331208 30 L-9.999999 30 L-10 40 L0 40 L-0.0000008742278 50 L-10.000001 50 L-9.999999 40 L-20 40 L-19.999998 30 L-9.999998 29.999998 L-9.999996 19.999998 L-19.999996 19.999998 L-19.999996 29.999998 L-29.999996 29.999998 L-29.999994 19.999998 L-39.999992 19.999998 L-39.999992 29.999998 L-49.999992 29.999998 L-49.999992 40 L-39.999992 40 L-39.999992 50 L-49.999992 50 L-49.999992 40 L-59.999992 40 L-59.999992 30 L-49.999992 29.999998 L-49.999992 19.999998 L-59.999992 19.999998 L-59.999992 9.999998 L-49.999992 9.999997 L-49.999992 19.999996 L-39.999992 19.999994 L-39.999992 9.999994 L-29.999992 9.999993 L-29.99999 -0.00000667572 L-39.999992 -0.000006794969 L-39.999992 9.999993 L-49.999992 9.999993 L-49.999992 -0.00000667572 L-59.999992 -0.000006794969 L-59.999992 -10.000007 L-49.999992 -10.000008 L-49.999992 -20.000008 L-59.999992 -20.000008 L-59.999992 -10.000008 L-69.99999 -10.000008 L-69.99999 -20.000008 L-79.99999 -20.000008 L-79.99999 -10.000008 L-89.99999 -10.000008 L-89.99999 -0.0000076293945 L-79.99999 -0.0000071922805 L-79.99999 9.999992 L-89.99999 9.999992 L-89.99999 -0.0000076293945 L-99.99999 -0.000007748643 L-99.99999 -10.000008 L-89.99999 -10.000009 L-89.99999 -20.000008 L-99.99999 -20.000008 L-99.99999 -30.000008 L-89.99999 -30.00001 L-89.99999 -20.00001 L-79.99999 -20.000011 L-79.99999 -30.000011 L-69.99999 -30.000013 L-69.99999 -40.000015 L-79.99999 -40.000015 L-79.99999 -50.000015 L-69.99999 -50.000015 L-69.99999 -40.000015 L-59.999992 -40.000015 L-59.999992 -30.000015 L-69.99999 -30.000011 L-69.99999 -20.000011 L-59.999992 -20.000013 L-59.999992 -30.000013 L-49.999992 -30.000015 L-49.999992 -20.000015 L-39.999992 -20.000017 L-39.999992 -30.000017 L-29.999992 -30.00002 L-29.99999 -40.00002 L-39.999992 -40.00002 L-39.999992 -30.00002 L-49.999992 -30.00002 L-49.999992 -40.00002 L-59.999992 -40.00002 L-59.999992 -50.00002 L-49.999992 -50.00002 L-49.999992 -60.00002 L-59.999992 -60.00002 L-59.999992 -70.000015 L-49.999992 -70.000015 L-49.999992 -60.000015 L-39.999992 -60.000015 L-39.999992 -70.000015 L-29.999992 -70.000015 L-29.99999 -80.000015 L-39.999992 -80.000015 L-39.999992 -70.000015 L-49.999992 -70.000015 L-49.999992 -80.000015 L-59.999992 -80.000015 L-59.999992 -90.000015 L-49.999992 -90.000015 L-49.999992 -100.000015 L-59.999992 -100.000015 L-59.999992 -90.000015 L-69.99999 -90.000015 L-69.99999 -100.000015 L-79.99999 -100.000015 L-79.99999 -90.000015 L-89.99999 -90.000015 L-89.99999 -80.000015 L-79.99999 -80.000015 L-79.99999 -70.000015 L-89.99999 -70.000015 L-89.99999 -80.000015 L-99.99999 -80.000015 L-99.99999 -90.000015 L-89.99999 -90.000015 L-89.99999 -100.000015 L-99.99999 -100.000015 L-99.99999 -110.000015 L-89.99999 -110.000015 L-89.99999 -100.000015 L-79.99999 -100.000015 L-79.99999 -110.000015 L-69.99999 -110.000015 L-69.99999 -120.000015 L-79.99999 -120.000015 L-79.99999 -130.00002 L-69.99999 -130.00002 L-69.99999 -120.000015 L-59.999992 -120.000015 L-59.999992 -110.000015 L-69.99999 -110.000015 L-69.99999 -100.000015 L-59.999992 -100.000015 L-59.999992 -110.000015 L-49.999992 -110.000015 L-49.999992 -100.000015 L-39.999992 -100.000015 L-39.999992 -110.000015 L-29.999992 -110.000015 L-29.99999 -120.000015 L-39.999992 -120.000015 L-39.999992 -130.00002 L-29.999992 -130.00002 L-29.999992 -120.000015 L-19.999992 -120.000015 L-19.999992 -110.000015 L-29.999992 -110.000015 L-29.999992 -100.000015 L-19.999992 -100.000015 L-19.999992 -90.000015 L-29.999992 -90.000015 L-29.999989 -100.000015 L-39.99999 -100.000015 L-39.99999 -90.000015 L-49.99999 -90.000015 L-49.99999 -80.000015 L-39.99999 -80.000015 L-39.99999 -90.000015 L-29.999989 -90.000015 L-29.999989 -80.000015 L-19.999989 -80.000015 L-19.999989 -70.000015 L-29.999989 -70.000015 L-29.999989 -60.000015 L-19.999989 -60.000015 L-19.999987 -70.000015 L-9.999987 -70.000015 L-9.999987 -60.000015 L0.00001335144 -60.000015 L0.000015099896 -70.000015 L10.000015 -70.000015 L10.000017 -80.000015 L0.000017166138 -80.000015 L0.00001629191 -70.000015 L-9.999984 -70.000015 L-9.999982 -80.000015 L-19.99998 -80.000015 L-19.999979 -90.000015 L-9.999979 -90.000015 L-9.999977 -100.000015 L-19.999977 -100.000015 L-19.999975 -110.000015 L-9.999975 -110.000015 L-9.999975 -100.000015 L0.000024795532 -100.000015 L0.000026543988 -110.000015 L10.000027 -110.000015 L10.000029 -120.000015 L0.00002861023 -120.000015 L0.000030358686 -130.00002 L10.0000305 -130.00002 L10.0000305 -120.000015 L20.00003 -120.000015 L20.00003 -110.000015 L10.0000305 -110.000015 L10.0000305 -100.000015 L20.00003 -100.000015 L20.000032 -110.000015 L30.000032 -110.000015 L30.000032 -100.000015 L40.00003 -100.000015 L40.00003 -110.000015 L50.00003 -110.000015 L50.00003 -120.000015 L40.00003 -120.000015 L40.00003 -110.000015 L30.00003 -110.000015 L30.000032 -120.000015 L20.000032 -120.000015 L20.000034 -130.00002 L30.000034 -130.00002 L30.000036 -140.00002 L20.000036 -140.00002 L20.000038 -150.00002 L30.000038 -150.00002 L30.000038 -140.00002 L40.00004 -140.00002 L40.00004 -150.00002 L50.00004 -150.00002 L50.00004 -160.00002 L40.00004 -160.00002 L40.00004 -150.00002 L30.000038 -150.00002 L30.00004 -160.00002 L20.00004 -160.00002 L20.000042 -170.00002 L30.000042 -170.00002 L30.000044 -180.00002 L20.000044 -180.00002 L20.000044 -170.00002 L10.000044 -170.00002 L10.000046 -180.00002 L0.000045776367 -180.00002 L0.00004490214 -170.00002 L-9.999955 -170.00002 L-9.999956 -160.00002 L0.00004386902 -160.00002 L0.00004299479 -150.00002 L-9.999957 -150.00002 L-9.999955 -160.00002 L-19.999954 -160.00002 L-19.999952 -170.00002 L-9.999952 -170.00002 L-9.99995 -180.00002 L-19.99995 -180.00002 L-19.999949 -190.00002 L-9.9999485 -190.00002 L-9.9999485 -180.00002 L0.000051498413 -180.00002 L0.00005324687 -190.00002 L10.000053 -190.00002 L10.000055 -200.00002 L0.00005531311 -200.00002 L0.000057061567 -210.00002 L10.000057 -210.00002 L10.000057 -200.00002 L20.000057 -200.00002 L20.000057 -190.00002 L10.000057 -190.00002 L10.000057 -180.00002 L20.000057 -180.00002 L20.00006 -190.00002 L30.00006 -190.00002 L30.00006 -180.00002 L40.00006 -180.00002 L40.00006 -190.00002 L50.00006 -190.00002 L50.00006 -200.00002 L40.00006 -200.00002 L40.00006 -210.00002 L50.00006 -210.00002 L50.00006 -200.00002 L60.00006 -200.00002 L60.00006 -190.00002 L50.00006 -190.00002 L50.00006 -180.00002 L60.00006 -180.00002 L60.00006 -170.00002 L50.00006 -170.00002 L50.000065 -180.00002 L40.000065 -180.00002 L40.000065 -170.00002 L30.000065 -170.00002 L30.000065 -160.00002 L40.000065 -160.00002 L40.000065 -170.00002 L50.000065 -170.00002 L50.000065 -160.00002 L60.000065 -160.00002 L60.000065 -150.00002 L50.000065 -150.00002 L50.000065 -140.00002 L60.000065 -140.00002 L60.000065 -150.00002 L70.00006 -150.00002 L70.00006 -140.00002 L80.00006 -140.00002 L80.00006 -150.00002 L90.00006 -150.00002 L90.00006 -160.00002 L80.00006 -160.00002 L80.00006 -170.00002 L90.00006 -170.00002 L90.00006 -160.00002 L100.00006 -160.00002 L100.00006 -150.00002 L90.00006 -150.00002 L90.00006 -140.00002 L100.00006 -140.00002 L100.00006 -130.00002 L90.00006 -130.00002 L90.00006 -140.00002 L80.00006 -140.00002 L80.00006 -130.00002 L70.00006 -130.00002 L70.00006 -120.000015 L80.00006 -120.000015 L80.00006 -110.000015 L70.00006 -110.000015 L70.00006 -120.000015 L60.00006 -120.000015 L60.000065 -130.00002 L70.00006 -130 L70.00006 -140 L60.00006 -140 L60.00006 -130 L50.00006 -130 L50.000065 -140 L40.000065 -140 L40.000065 -130 L30.000065 -130 L30.000065 -120 L40.000065 -120 L40.000065 -130 L50.000065 -130 L50.000065 -120 L60.000065 -120 L60.000065 -110 L50.000065 -110 L50.000065 -100 L60.000065 -100 L60.000065 -90 L50.000065 -90 L50.00007 -100 L40.00007 -100 L40.00007 -90 L30.000069 -90 L30.000069 -80 L40.00007 -80 L40.00007 -90 L50.00007 -90 L50.00007 -80 L60.00007 -80 L60.00007 -70 L50.00007 -70 L50.00007 -60 L60.00007 -60 L60.00007 -70 L70.00007 -70 L70.00007 -60 L80.00007 -60 L80.00007 -70 L90.00007 -70 L90.00007 -80 L80.00007 -80 L80.00007 -70 L70.00007 -70 L70.00007 -80 L60.00007 -80 L60.00007 -90 L70.00007 -90 L70.00007 -100 L60.00007 -100 L60.00007 -110 L70.00007 -110 L70.00007 -100 L80.00007 -100 L80.00007 -110 L90.00007 -110 L90.00007 -120 L80.00007 -120 L80.00007 -130 L90.00007 -130 L90.00007 -120 L100.00007 -120 L100.00007 -110 L90.00007 -110 L90.00007 -100 L100.00007 -100 L100.00007 -110 L110.00007 -110 L110.00007 -100 L120.00007 -100 L120.00007 -110 L130.00006 -110 L130.00006 -120 L120.00006 -120 L120.00006 -130 L130.00006 -130 L130.00006 -120 L140.00006 -120 L140.00006 -110 L130.00006 -110 L130.00006 -100 L140.00006 -100 L140.00006 -90 L130.00006 -90 L130.00006 -100 L120.00006 -100 L120.00006 -90 L110.00006 -90 L110.00006 -80 L120.00006 -80 L120.00006 -90 L130.00006 -90 L130.00006 -80 L140.00006 -80 L140.00006 -70 L130.00006 -70 L130.00006 -60 L140.00006 -60 L140.00006 -70 L150.00006 -70 L150.00006 -60 L160.00006 -60 L160.00006 -70 L170.00006 -70 L170.00006 -80 L160.00006 -80 L160.00006 -70 L150.00006 -70 L150.00006 -80 L140.00006 -80 L140.00006 -90 L150.00006 -90 L150.00006 -100 L140.00006 -100 L140.00006 -110 L150.00006 -110 L150.00006 -100 L160.00006 -100 L160.00006 -110 L170.00006 -110 L170.00006 -120 L160.00006 -120 L160.00006 -130 L170.00006 -130 L170.00006 -120 L180.00006 -120 L180.00006 -110 L170.00006 -110 L170.00006 -100 L180.00006 -100 L180.00006 -110 L190.00006 -110 L190.00006 -100 L200.00006 -100 L200.00006 -110 L210.00006 -110 L210.00006 -120 L200.00006 -120 L200.00006 -110 L190.00006 -110 L190.00006 -120 L180.00006 -120 L180.00006 -130 L190.00006 -130 L190.00006 -140 L180.00006 -140 L180.00006 -150 L190.00006 -150 L190.00006 -140 L200.00006 -140 L200.00006 -150 L210.00006 -150 L210.00006 -160 L200.00006 -160 L200.00006 -150 L190.00006 -150 L190.00006 -160 L180.00006 -160 L180.00006 -170 L190.00006 -170 L190.00006 -180 L180.00006 -180 L180.00006 -170 L170.00006 -170 L170.00006 -180 L160.00006 -180 L160.00006 -170 L150.00006 -170 L150.00006 -160 L160.00006 -160 L160.00006 -150 L150.00006 -150 L150.00006 -160 L140.00006 -160 L140.00006 -170 L150.00006 -170 L150.00006 -180 L140.00006 -180 L140.00006 -190 L150.00006 -190 L150.00006 -180 L160.00006 -180 L160.00006 -190 L170.00006 -190 L170.00006 -200 L160.00006 -200 L160.00006 -210 L170.00006 -210 L170.00006 -200 L180.00006 -200 L180.00006 -190 L170.00006 -190 L170.00006 -180 L180.00006 -180 L180.00006 -190 L190.00006 -190 L190.00006 -180 L200.00006 -180 L200.00006 -190 L210.00006 -190 L210.00006 -200 L200.00006 -200 L200.00006 -210 L210.00006 -210 L210.00006 -200 L220.00006 -200 L220.00006 -190 L210.00006 -190 L210.00006 -180 L220.00006 -180 L220.00006 -170 L210.00006 -170 L210.00006 -180 L200.00006 -180 L200.00006 -170 L190.00006 -170 L190.00006 -160 L200.00006 -160 L200.00006 -170 L210.00006 -170 L210.00006 -160 L220.00006 -160 L220.00006 -150 L210.00006 -150 L210.00006 -140 L220.00006 -140 L220.00006 -150 L230.00006 -150 L230.00006 -140 L240.00006 -140 L240.00006 -150 L250.00006 -150 L250.00006 -160 L240.00006 -160 L240.00006 -170 L250.00006 -170 L250.00006 -160 L260.00006 -160 L260.00006 -150 L250.00006 -150 L250.00006 -140 L260.00006 -140 L260.00006 -130 L250.00006 -130 L250.00006 -140 L240.00006 -140 L240.00006 -130 L230.00006 -130 L230.00006 -120 L240.00006 -120 L240.00006 -110 L230.00006 -110 L230.00006 -120 L220.00006 -120 L220.00006 -130 L230.00006 -129.99998 L230.00006 -139.99998 L220.00006 -139.99998 L220.00006 -129.99998 L210.00006 -129.99998 L210.00006 -139.99998 L200.00006 -139.99998 L200.00006 -129.99998 L190.00006 -129.99998 L190.00006 -119.999985 L200.00006 -119.999985 L200.00006 -129.99998 L210.00006 -129.99998 L210.00006 -119.999985 L220.00006 -119.999985 L220.00006 -109.999985 L210.00006 -109.999985 L210.00006 -99.999985 L220.00006 -99.999985 L220.00006 -89.999985 L210.00006 -89.999985 L210.00006 -99.999985 L200.00006 -99.999985 L200.00006 -89.999985 L190.00006 -89.999985 L190.00006 -79.999985 L200.00006 -79.999985 L200.00006 -89.999985 L210.00006 -89.999985 L210.00006 -79.999985 L220.00006 -79.999985 L220.00006 -69.999985 L210.00006 -69.999985 L210.00006 -59.999985 L220.00006 -59.999985 L220.00006 -69.999985 L230.00006 -69.999985 L230.00006 -59.999985 L240.00006 -59.999985 L240.00006 -69.999985 L250.00006 -69.999985 L250.00006 -79.999985 L240.00006 -79.999985 L240.00006 -89.999985 L250.00006 -89.999985 L250.00006 -79.999985 L260.00006 -79.999985 L260.00006 -69.999985 L250.00006 -69.999985 L250.00006 -59.999985 L260.00006 -59.999985 L260.00006 -49.999985 L250.00006 -49.99998 L250.00006 -59.99998 L240.00006 -59.999977 L240.00006 -49.999977 L230.00006 -49.999973 L230.00006 -39.999973 L240.00006 -39.999973 L240.00006 -29.999973 L230.00006 -29.99997 L230.00006 -39.99997 L220.00006 -39.999966 L220.00006 -49.999966 L230.00006 -49.999954 L230.00006 -59.999954 L220.00006 -59.99995 L220.00006 -49.99995 L210.00006 -49.999947 L210.00006 -59.999947 L200.00006 -59.999943 L200.00006 -49.999943 L190.00006 -49.99994 L190.00006 -39.99994 L200.00006 -39.99994 L200.00006 -29.999939 L190.00006 -29.999935 L190.00006 -39.999935 L180.00006 -39.99993 L180.00006 -49.99993 L190.00006 -49.99992 L190.00006 -59.99992 L180.00006 -59.999916 L180.00006 -69.999916 L190.00006 -69.99991 L190.00006 -59.99991 L200.00006 -59.999897 L200.00006 -69.99989 L210.00006 -69.999886 L210.00006 -79.999886 L200.00006 -79.999886 L200.00006 -69.999886 L190.00006 -69.999886 L190.00006 -79.999886 L180.00006 -79.999886 L180.00006 -89.999886 L190.00006 -89.99988 L190.00006 -99.99988 L180.00006 -99.99988 L180.00006 -89.99988 L170.00006 -89.99988 L170.00006 -99.99988 L160.00006 -99.99988 L160.00006 -89.99988 L150.00006 -89.99988 L150.00006 -79.99988 L160.00006 -79.99988 L160.00006 -89.99988 L170.00006 -89.99988 L170.00006 -79.99988 L180.00006 -79.99988 L180.00006 -69.99988 L170.00006 -69.99988 L170.00006 -59.999878 L180.00006 -59.999878 L180.00006 -49.999878 L170.00006 -49.999874 L170.00006 -59.999874 L160.00006 -59.99987 L160.00006 -49.99987 L150.00006 -49.999866 L150.00006 -39.999866 L160.00006 -39.999866 L160.00006 -29.999866 L150.00006 -29.999863 L150.00006 -39.999863 L140.00006 -39.99986 L140.00006 -49.99986 L150.00006 -49.999847 L150.00006 -59.999847 L140.00006 -59.999844 L140.00006 -49.999844 L130.00006 -49.99984 L130.00006 -59.99984 L120.00006 -59.999836 L120.00006 -49.999836 L110.00006 -49.999832 L110.00006 -39.999832 L120.00006 -39.999832 L120.00006 -49.999832 L130.00006 -49.999832 L130.00006 -39.999832 L140.00006 -39.999832 L140.00006 -29.999832 L130.00006 -29.999828 L130.00006 -19.999828 L140.00006 -19.99983 L140.00006 -9.99983 L130.00006 -9.999827 L130.00006 -19.999828 L120.00006 -19.999825 L120.00006 -9.999825 L110.00006 -9.999822 L110.00006 0.0001783371 L120.00006 0.00017694639 L120.00006 -9.999823 L130.00006 -9.999824 L130.00006 0.00017642975 L140.00006 0.00017503904 L140.00006 10.000175 L130.00006 10.000178 L130.00006 20.00018 L140.00006 20.000177 L140.00006 10.000177 L150.00006 10.000176 L150.00006 20.000175 L160.00006 20.000174 L160.00006 10.000174 L170.00006 10.000173 L170.00006 0.00017261505 L160.00006 0.0001724958 L160.00006 10.000173 L150.00006 10.000173 L150.00006 0.00017261505 L140.00006 0.0001724958 L140.00006 -9.999827 L150.00006 -9.999828 L150.00006 -19.999828 L140.00006 -19.999828 L140.00006 -29.999828 L150.00006 -29.99983 L150.00006 -19.99983 L160.00006 -19.999832 L160.00006 -29.999832 L170.00006 -29.999834 L170.00006 -39.999832 L160.00006 -39.999832 L160.00006 -49.999832 L170.00006 -49.999832 L170.00006 -39.999832 L180.00006 -39.999832 L180.00006 -29.999832 L170.00006 -29.999828 L170.00006 -19.999828 L180.00006 -19.99983 L180.00006 -29.99983 L190.00006 -29.999832 L190.00006 -19.999832 L200.00006 -19.999834 L200.00006 -29.999834 L210.00006 -29.999836 L210.00006 -39.999836 L200.00006 -39.999836 L200.00006 -49.999836 L210.00006 -49.999836 L210.00006 -39.999836 L220.00006 -39.999836 L220.00006 -29.999836 L210.00006 -29.999832 L210.00006 -19.999832 L220.00006 -19.999834 L220.00006 -9.999834 L210.00006 -9.999831 L210.00006 -19.999832 L200.00006 -19.999828 L200.00006 -9.999828 L190.00006 -9.9998255 L190.00006 0.0001745224 L200.00006 0.00017313169 L200.00006 -9.999826 L210.00006 -9.999827 L210.00006 0.00017261505 L220.00006 0.00017122434 L220.00006 10.000172 L210.00006 10.0001745 L210.00006 20.000175 L220.00006 20.000174 L220.00006 10.000174 L230.00006 10.000173 L230.00006 20.000172 L240.00006 20.00017 L240.00006 10.00017 L250.00006 10.000169 L250.00006 0.00016880035 L240.00006 0.0001686811 L240.00006 -9.999831 L250.00006 -9.999832 L250.00006 0.00016784668 L260.00006 0.00016645597 L260.00006 10.000167 L250.00006 10.00017 L250.00006 20.00017 L260.00006 20.000168 L260.00006 30.000168 L250.00006 30.000172 L250.00006 20.000172 L240.00006 20.000175 L240.00006 30.000175 L230.00006 30.00018 L230.00006 40.00018 L240.00006 40.00018 L240.00006 50.00018 L230.00006 50.000183 L230.00006 40.000183 L220.00006 40.000187 L220.00006 30.000187 L230.00006 30.000196 L230.00006 20.000196 L220.00006 20.0002 L220.00006 30.0002 L210.00006 30.000204 L210.00006 20.000204 L200.00006 20.000208 L200.00006 30.000208 L190.00006 30.000212 L190.00006 40.000214 L200.00006 40.000214 L200.00006 30.000214 L210.00006 30.000212 L210.00006 40.000214 L220.00006 40.000214 L220.00006 50.000214 L210.00006 50.000217 L210.00006 60.000217 L220.00006 60.000217 L220.00006 70.00021 L210.00006 70.00021 L210.00006 60.000214 L200.00006 60.000217 L200.00006 70.00021 L190.00006 70.00021 L190.00006 80.00021 L200.00006 80.00021 L200.00006 70.00021 L210.00006 70.00021 L210.00006 80.00021 L220.00006 80.00021 L220.00006 90.00021 L210.00006 90.00021 L210.00006 100.00021 L220.00006 100.00021 L220.00006 90.00021 L230.00006 90.00021 L230.00006 100.00021 L240.00006 100.00021 L240.00006 90.00021 L250.00006 90.00021 L250.00006 80.00021 L240.00006 80.00021 L240.00006 90.00021 L230.00006 90.00021 L230.00006 80.00021 L220.00006 80.00021 L220.00006 70.00021 L230.00006 70.00021 L230.00006 60.000214 L220.00006 60.000214 L220.00006 50.000214 L230.00006 50.000214 L230.00006 60.000214 L240.00006 60.000214 L240.00006 50.000214 L250.00006 50.000214 L250.00006 40.000214 L240.00006 40.000214 L240.00006 30.000214 L250.00006 30.000212 L250.00006 40.000214 L260.00006 40.000214 L260.00006 50.000214 L250.00006 50.000217 L250.00006 60.000217 L260.00006 60.000217 L260.00006 50.000217 L270.00006 50.000217 L270.00006 60.000217 L280.00006 60.000217 L280.00006 50.000217 L290.00006 50.000217 L290.00006 40.000217 L280.00006 40.000217 L280.00006 30.000217 L290.00006 30.000216 L290.00006 40.000214 L300.00006 40.000214 L300.00006 50.000214 L290.00006 50.000217 L290.00006 60.000217 L300.00006 60.000217 L300.00006 70.00021 L290.00006 70.00021 L290.00006 60.000214 L280.00006 60.000217 L280.00006 70.00021 L270.00006 70.00021 L270.00006 80.00021 L280.00006 80.00021 L280.00006 70.00021 L290.00006 70.00021 L290.00006 80.00021 L300.00006 80.00021 L300.00006 90.00021 L290.00006 90.00021 L290.00006 100.00021 L300.00006 100.00021 L300.00006 90.00021 L310.00006 90.00021 L310.00006 100.00021 L320.00006 100.00021 L320.00006 90.00021 L330.00006 90.00021 L330.00006 80.00021 L320.00006 80.00021 L320.00006 90.00021 L310.00006 90.00021 L310.00006 80.00021 L300.00006 80.00021 L300.00006 70.00021 L310.00006 70.00021 L310.00006 60.000214 L300.00006 60.000214 L300.00006 50.000214 L310.00006 50.000214 L310.00006 60.000214 L320.00006 60.000214 L320.00006 50.000214 L330.00006 50.000214 L330.00006 40.000214 L320.00006 40.000214 L320.00006 30.000214 L330.00006 30.000212 L330.00006 40.000214 L340.00006 40.000214 L340.00006 50.000214 L330.00006 50.000217 L330.00006 60.000217 L340.00006 60.000217 L340.00006 50.000217 L350.00006 50.000217 L350.00006 60.000217 L360.00006 60.000217 L360.00006 50.000217 L370.00006 50.000217 L370.00006 40.000217 L360.00006 40.000217 L360.00006 50.000217 L350.00006 50.000217 L350.00006 40.000217 L340.00006 40.000217 L340.00006 30.000217 L350.00006 30.000216 L350.00006 20.000216 L340.00006 20.000216 L340.00006 10.000216 L350.00006 10.000215 L350.00006 20.000214 L360.00006 20.000212 L360.00006 10.000212 L370.00006 10.000211 L370.00006 0.00021076202 L360.00006 0.00021064277 L360.00006 10.000211 L350.00006 10.000211 L350.00006 0.00021076202 L340.00006 0.00021064277 L340.00006 -9.999789 L350.00006 -9.99979 L350.00006 -19.99979 L340.00006 -19.99979 L340.00006 -9.99979 L330.00006 -9.99979 L330.00006 -19.99979 L320.00006 -19.99979 L320.00006 -9.99979 L310.00006 -9.99979 L310.00006 0.00020980835 L320.00006 0.00021024546" />
</g>
</svg>
